<svg xmlns="http://www.w3.org/2000/svg" xmlns:xlink="http://www.w3.org/1999/xlink" version="1.1" x="0px" y="0px" viewBox="0 0 512 640" style="enable-background:new 0 0 512 512;" xml:space="preserve"><g><g><g><path d="M278.096,361.559V246.961h-44.192v114.598c0,6.369-3.894,11.943-10.263,11.943h-12.029l44.314,61.607l44.314-61.607     h-11.913C281.957,373.502,278.096,367.928,278.096,361.559z"/><path d="M368.041,198.516c-5.746-1.745-9.168-7.497-7.96-13.378c0.807-3.927,1.215-7.967,1.215-12.009     c0-32.7-26.604-59.305-59.305-59.305c-26.282,0-49.712,17.629-56.979,42.87c-2.586,8.979-14.823,11.201-20.39,3.669     c-8.358-11.306-21.197-17.789-35.224-17.789c-24.905,0-45.179,21.663-43.681,46.483c0.293,4.842-2.504,9.386-6.96,11.306     c-17.818,7.677-29.33,25.039-29.33,44.428c0,26.739,21.753,48.367,48.492,48.367h49.88v-57.501c0-6.369,3.454-12.8,9.824-12.8     h77.725c6.37,0,9.856,6.431,9.856,12.8v57.501h48.727c26.739,0,48.492-21.628,48.492-48.367     C402.424,223.616,388.285,204.661,368.041,198.516C362.295,196.771,388.285,204.661,368.041,198.516     C362.295,196.771,388.285,204.661,368.041,198.516z"/></g><g><g><path d="M45.294,357.768C29.837,325.857,22,291.569,22,255.855c0-62.461,24.296-121.185,68.412-165.354      C134.533,46.328,193.196,22,255.595,22c66.548,0,130.128,28.545,174.437,78.314l-22.505,20.033      c-38.597-43.353-93.975-68.218-151.932-68.218c-112.19,0-203.464,91.392-203.464,203.726c0,31.127,6.823,60.997,20.28,88.781      L45.294,357.768z"/><path d="M418.78,126.446h-57.322V94.309h39.655l-3.861-40.69l31.996-3.034l5.529,58.276      C435.657,118.123,428.087,126.446,418.78,126.446z"/></g><g><path d="M256.405,490c-66.549,0-130.129-28.545-174.437-78.314l22.505-20.033c38.597,43.353,93.974,68.218,151.932,68.218      c112.19,0,203.464-91.392,203.464-203.726c0-31.127-6.823-60.997-20.28-88.781l27.118-13.132      C482.163,186.143,490,220.431,490,256.145C490,383.51,383.862,490,256.405,490z"/><path d="M82.803,461.43l-5.58-58.275c-0.887-9.267,6.684-17.601,15.997-17.601h57.322v32.137h-39.64l3.895,40.676L82.803,461.43      z"/></g></g></g></g><text x="0" y="527" fill="#000000" font-size="5px" font-weight="bold" font-family="'Helvetica Neue', Helvetica, Arial-Unicode, Arial, Sans-serif">Created by Shocho</text><text x="0" y="532" fill="#000000" font-size="5px" font-weight="bold" font-family="'Helvetica Neue', Helvetica, Arial-Unicode, Arial, Sans-serif">from the Noun Project</text></svg>